<?xml version="1.0" encoding="UTF-8" standalone="no"?>
<!-- Created with Inkscape (http://www.inkscape.org/) -->

<svg
   xmlns:dc="http://purl.org/dc/elements/1.1/"
   xmlns:cc="http://creativecommons.org/ns#"
   xmlns:rdf="http://www.w3.org/1999/02/22-rdf-syntax-ns#"
   xmlns:svg="http://www.w3.org/2000/svg"
   xmlns="http://www.w3.org/2000/svg"
   xmlns:sodipodi="http://sodipodi.sourceforge.net/DTD/sodipodi-0.dtd"
   xmlns:inkscape="http://www.inkscape.org/namespaces/inkscape"
   width="661.45831mm"
   height="661.45831mm"
   viewBox="0 0 661.45831 661.45831"
   version="1.1"
   id="svg8"
   inkscape:version="0.92.1 r15371"
   sodipodi:docname="laravel.svg">
  <defs
     id="defs2" />
  <sodipodi:namedview
     id="base"
     pagecolor="#ffffff"
     bordercolor="#666666"
     borderopacity="1.0"
     inkscape:pageopacity="0.0"
     inkscape:pageshadow="2"
     inkscape:zoom="0.175"
     inkscape:cx="1317.9538"
     inkscape:cy="1382.7225"
     inkscape:document-units="mm"
     inkscape:current-layer="layer1"
     showgrid="false"
     fit-margin-top="0"
     fit-margin-left="0"
     fit-margin-right="0"
     fit-margin-bottom="0"
     inkscape:window-width="1177"
     inkscape:window-height="1196"
     inkscape:window-x="1231"
     inkscape:window-y="370"
     inkscape:window-maximized="0" />
  <metadata
     id="metadata5">
    <rdf:RDF>
      <cc:Work
         rdf:about="">
        <dc:format>image/svg+xml</dc:format>
        <dc:type
           rdf:resource="http://purl.org/dc/dcmitype/StillImage" />
        <dc:title></dc:title>
      </cc:Work>
    </rdf:RDF>
  </metadata>
  <g
     inkscape:label="Capa 1"
     inkscape:groupmode="layer"
     id="layer1"
     transform="translate(236.23512,181.13988)">
    <g
       id="layer1-2"
       inkscape:label="Capa 1"
       transform="translate(4.5357128,31.750001)">
      <g
         style="fill:#ffffff"
         transform="matrix(2.5838216,0,0,2.5838216,-240.77083,-212.88988)"
         id="g3688">
        <path
           style="fill:#ffffff"
           inkscape:connector-curvature="0"
           d="m 160.445,208 c 2,2.889 3.222,2.667 4.777,2 1.555,-0.667 81.556,-27.667 84,-28.555 2.444,-0.889 1.667,-1.667 0.89,-2.89 -0.778,-1.222 -27.445,-37.444 -28.779,-39.555 -1.333,-2.111 -2,-1.667 -4.111,-1 l -84.805,22.067 c 0,0 26.028,45.043 28.028,47.933 z M 256,171.115 v -42.398 c -9.541,2.542 -21.609,5.756 -26.373,7.023 7.187,9.616 18.423,24.665 26.373,35.375 z M 229.545,83.521 c -1.307,0.297 -30.247,5.527 -32.03,5.764 -1.782,0.238 -1.188,1.248 -0.475,2.258 l 25.467,34.943 c 0,0 31.139,-7.725 33.041,-8.141 0.154,-0.034 0.305,-0.07 0.452,-0.107 v -4.627 c -5.66,-7.177 -21.08,-26.718 -22.413,-28.544 -1.604,-2.199 -2.734,-1.842 -4.042,-1.546 z"
           id="path3680" />
        <path
           style="fill:#ffffff"
           inkscape:connector-curvature="0"
           d="m 47.456,28.634 c 6.267,-0.285 6.839,1.141 9.592,5.224 l 69.17,115.642 86.974,-20.835 c -4.819,-6.831 -26.695,-37.846 -28.81,-40.806 -2.376,-3.328 0.06,-4.873 3.923,-5.526 3.862,-0.654 37.14,-6.24 39.992,-6.656 2.853,-0.416 5.112,-1.426 9.746,4.16 2.372,2.858 10.412,12.87 17.957,22.255 V 48 C 256,34.778 251.305,23.472 241.917,14.083 232.528,4.695 221.222,0 208,0 H 48 C 34.778,0 23.472,4.695 14.083,14.083 8.698,19.47 4.865,25.487 2.57,32.134 c 15.678,-1.288 40.501,-3.3 44.887,-3.5 z"
           id="path3682" />
        <path
           style="fill:#ffffff"
           inkscape:connector-curvature="0"
           d="m 168.289,223.564 c -7.334,2.222 -10.623,3.325 -15.4,-3.342 -3.578,-4.993 -22.927,-39.843 -32.414,-57.023 -17.955,4.702 -50.814,13.278 -60.29,15.555 -9.248,2.222 -13.198,-3.323 -14.717,-6.74 C 44.403,169.616 17.289,111.158 0,73.65 V 208 c 0,13.223 4.695,24.527 14.083,33.917 C 23.472,251.305 34.778,256 48,256 h 160 c 13.222,0 24.528,-4.695 33.917,-14.083 C 251.305,232.527 256,221.223 256,208 v -15.781 c -19.64,7.184 -82.77,29.848 -87.711,31.345 z"
           id="path3684" />
        <path
           style="fill:#ffffff"
           inkscape:connector-curvature="0"
           d="m 60.412,165.288 c 2.6,-0.595 51.313,-12.253 52.353,-12.476 1.04,-0.223 1.708,-0.817 0.594,-2.747 -1.114,-1.93 -64.934,-112.09 -64.934,-112.09 -0.589,-1.011 -0.421,-1.348 -2.022,-1.264 -1.427,0.076 -37.538,3.298 -45.898,3.996 a 51.038,51.038 0 0 0 -0.461,5.331 c 8.487,17.375 57.199,117.837 57.472,118.655 0.297,0.892 0.297,1.189 2.896,0.595 z"
           id="path3686" />
      </g>
    </g>
  </g>
</svg>
